HIERARCHY
ROOT Hips
{
	OFFSET 0.000000 0.000000 0.000000
	CHANNELS 6 Xposition Yposition Zposition Yrotation Xrotation Zrotation
	JOINT Chest
	{
		OFFSET 0.000000 -0.009281 11.569106
		CHANNELS 3 Yrotation Xrotation Zrotation
		JOINT Chest2
		{
			OFFSET -0.000000 0.016865 9.269641
			CHANNELS 3 Yrotation Xrotation Zrotation
			JOINT Chest3
			{
				OFFSET -0.000000 0.000001 8.374491
				CHANNELS 3 Yrotation Xrotation Zrotation
				JOINT Chest4
				{
					OFFSET -0.000000 0.000001 8.374493
					CHANNELS 3 Yrotation Xrotation Zrotation
					JOINT Neck
					{
						OFFSET -0.000000 0.000002 12.152554
						CHANNELS 3 Yrotation Xrotation Zrotation
						JOINT Head
						{
							OFFSET -0.000000 0.040101 7.802319
							CHANNELS 3 Yrotation Xrotation Zrotation
							End Site
							{
								OFFSET -0.000000 0.020947 14.853096
							}
						}
					}
					JOINT RightCollar
					{
						OFFSET 2.894404 0.000001 6.791374
						CHANNELS 3 Yrotation Xrotation Zrotation
						JOINT RightShoulder
						{
							OFFSET 13.574684 0.000001 0.000000
							CHANNELS 3 Yrotation Xrotation Zrotation
							JOINT RightElbow
							{
								OFFSET 23.923903 0.000002 0.000000
								CHANNELS 3 Yrotation Xrotation Zrotation
								JOINT RightWrist
								{
									OFFSET 19.846718 0.012767 0.000000
									CHANNELS 3 Yrotation Xrotation Zrotation
									End Site
									{
										OFFSET 14.973145 0.000001 0.000000
									}
								}
							}
						}
					}
					JOINT LeftCollar
					{
						OFFSET -2.894404 0.000001 6.791374
						CHANNELS 3 Yrotation Xrotation Zrotation
						JOINT LeftShoulder
						{
							OFFSET -13.574684 -0.000001 0.000000
							CHANNELS 3 Yrotation Xrotation Zrotation
							JOINT LeftElbow
							{
								OFFSET -23.923903 -0.000002 0.000000
								CHANNELS 3 Yrotation Xrotation Zrotation
								JOINT LeftWrist
								{
									OFFSET -19.846718 0.012763 0.000000
									CHANNELS 3 Yrotation Xrotation Zrotation
									End Site
									{
										OFFSET -14.973145 -0.000001 0.000000
									}
								}
							}
						}
					}
				}
			}
		}
	}
	JOINT RightHip
	{
		OFFSET 9.469263 0.004643 0.045487
		CHANNELS 3 Yrotation Xrotation Zrotation
		JOINT RightKnee
		{
			OFFSET 0.000000 0.002661 -40.478676
			CHANNELS 3 Yrotation Xrotation Zrotation
			JOINT RightAnkle
			{
				OFFSET 0.000000 0.049106 -35.224068
				CHANNELS 3 Yrotation Xrotation Zrotation
				JOINT RightToe
				{
					OFFSET -0.000001 12.539529 -6.151390
					CHANNELS 3 Yrotation Xrotation Zrotation
					End Site
					{
						OFFSET -0.000001 5.044994 -1.291870
					}
				}
			}
		}
	}
	JOINT LeftHip
	{
		OFFSET -9.469263 0.004641 0.045487
		CHANNELS 3 Yrotation Xrotation Zrotation
		JOINT LeftKnee
		{
			OFFSET 0.000000 0.002661 -40.478676
			CHANNELS 3 Yrotation Xrotation Zrotation
			JOINT LeftAnkle
			{
				OFFSET 0.000000 0.049106 -35.224068
				CHANNELS 3 Yrotation Xrotation Zrotation
				JOINT LeftToe
				{
					OFFSET -0.000001 12.539529 -6.151390
					CHANNELS 3 Yrotation Xrotation Zrotation
					End Site
					{
						OFFSET -0.000001 5.044994 -1.291870
					}
				}
			}
		}
	}
}
MOTION
Frames: 11
Frame Time: 0.016667
42.797535 -25.587357 82.395706 1.846023 -1.904896 -97.374599 1.191210 -3.647595 1.315824 0.365624 -1.529885 0.547870 0.365624 -1.529886 0.547871 0.275574 -1.147087 0.411795 3.577131 -15.612202 -6.068377 4.432676 7.224082 -10.000533 8.913149 8.656766 0.886571 40.929468 -10.727736 -14.769772 -37.771732 -65.502737 100.066342 -52.777227 44.105468 44.441500 -9.264440 7.338197 -0.311242 -40.655407 -1.668827 12.659943 -32.934124 -70.310596 -30.958997 28.339459 17.118785 -70.969429 12.284182 5.985738 8.088624 1.665324 3.271677 -10.281738 -3.272547 -6.631535 4.526020 -0.165996 0.548142 -0.674391 -9.682350 -15.975372 -8.422494 -3.795768 -1.903748 11.842727 14.003868 -14.031464 -22.049720 15.313125 31.315342 4.981734 
42.967110 -25.565853 82.399734 1.850197 -1.962594 -97.281606 1.208067 -3.635129 1.278795 0.376973 -1.529071 0.534457 0.376973 -1.529071 0.534459 0.284051 -1.146474 0.401763 3.570343 -15.619353 -6.073169 4.418637 7.210378 -10.011893 8.921805 8.716342 0.894195 40.911061 -10.720354 -14.824630 -37.813928 -65.473299 100.120048 -52.756084 44.102617 44.449037 -9.272170 7.340882 -0.314608 -40.666400 -1.680734 12.661658 -32.960765 -70.316879 -30.910468 28.358720 17.133552 -70.936439 12.265778 5.884339 7.942958 1.730478 3.235198 -10.223437 -3.280952 -6.457441 4.525756 -0.180319 0.536631 -0.690351 -9.671178 -16.015993 -8.365469 -3.766509 -2.001096 11.947034 14.085386 -14.253334 -22.163310 15.454585 31.684858 5.074770 
43.141441 -25.545959 82.402626 1.850927 -2.025575 -97.179843 1.228548 -3.619759 1.241905 0.392319 -1.525821 0.520523 0.392319 -1.525822 0.520523 0.295522 -1.144032 0.391348 3.564924 -15.627603 -6.082121 4.405677 7.194634 -10.030477 8.913551 8.749834 0.897186 40.890727 -10.704189 -14.871764 -37.873153 -65.429271 100.188480 -52.738759 44.107859 44.454993 -9.290181 7.334098 -0.322305 -40.679302 -1.695197 12.664677 -33.025614 -70.295699 -30.826402 28.374081 17.112284 -70.915177 12.241436 5.771191 7.769272 1.813603 3.210302 -10.139163 -3.296567 -6.279310 4.521957 -0.193746 0.521908 -0.710164 -9.649319 -16.050533 -8.323669 -3.732865 -2.126072 12.062727 14.085591 -14.455332 -22.212530 15.624078 32.039191 5.168427 
43.315495 -25.527168 82.404289 1.849647 -2.097626 -97.061305 1.254824 -3.601574 1.201277 0.410962 -1.522094 0.505833 0.410962 -1.522093 0.505832 0.309463 -1.141231 0.380375 3.563258 -15.631009 -6.095303 4.397908 7.187966 -10.055644 8.897620 8.778846 0.904486 40.867006 -10.686424 -14.928649 -37.951427 -65.378386 100.273754 -52.717152 44.113631 44.473506 -9.313701 7.325002 -0.321997 -40.696538 -1.708331 12.684354 -33.037936 -70.297345 -30.798740 28.397345 17.096711 -70.876135 12.216439 5.660484 7.569810 1.914691 3.180404 -10.029259 -3.311459 -6.099238 4.494320 -0.214275 0.511682 -0.746898 -9.615391 -16.087016 -8.311811 -3.697349 -2.264585 12.193730 13.987587 -14.653283 -22.157190 15.827765 32.387244 5.276864 
43.497711 -25.497086 82.404411 1.846701 -2.167474 -96.963524 1.263299 -3.593014 1.189102 0.430642 -1.521907 0.493864 0.430642 -1.521908 0.493864 0.324192 -1.141084 0.371449 3.570927 -15.619796 -6.111321 4.405729 7.208826 -10.082854 8.897452 8.853136 0.923419 40.829088 -10.701111 -15.010348 -38.012810 -65.327187 100.357144 -52.692512 44.116708 44.495687 -9.333236 7.339090 -0.325180 -40.725153 -1.731938 12.699386 -33.041238 -70.294524 -30.760710 28.412264 17.083751 -70.844723 12.173660 5.547679 7.394150 2.034559 3.135681 -9.934388 -3.326860 -5.888689 4.479010 -0.231838 0.484796 -0.775794 -9.579854 -16.115901 -8.316227 -3.667998 -2.400791 12.344099 14.138288 -14.824905 -22.488698 16.006536 32.702403 5.344549 
43.681343 -25.469372 82.403519 1.846461 -2.263883 -96.862833 1.289632 -3.590609 1.175231 0.450422 -1.522932 0.485485 0.450422 -1.522932 0.485484 0.339007 -1.141843 0.365215 3.586267 -15.598525 -6.128699 4.426809 7.248713 -10.109913 8.891077 8.896636 0.925869 40.789627 -10.714187 -15.045657 -38.055301 -65.280605 100.417762 -52.674398 44.139985 44.514511 -9.359541 7.330270 -0.350152 -40.756388 -1.726403 12.707030 -33.053314 -70.278091 -30.712065 28.418500 17.076962 -70.811761 12.165427 5.440089 7.226619 2.146381 3.078843 -9.852229 -3.342963 -5.684401 4.454627 -0.248241 0.472530 -0.806201 -9.518966 -16.161612 -8.341842 -3.653652 -2.521951 12.495492 14.278487 -15.011000 -22.770809 16.203137 33.029118 5.435854 
43.867043 -25.446415 82.403297 1.850139 -2.369152 -96.770004 1.325805 -3.590723 1.164907 0.468397 -1.523997 0.479761 0.468397 -1.523997 0.479760 0.352475 -1.142631 0.360967 3.604210 -15.570791 -6.143804 4.453231 7.300760 -10.131858 8.868195 8.870399 0.920763 40.752870 -10.693909 -15.007420 -38.097313 -65.249193 100.469043 -52.658556 44.163122 44.534404 -9.399097 7.345616 -0.352486 -40.790627 -1.749945 12.716882 -33.092082 -70.234364 -30.631247 28.426662 17.079670 -70.805211 12.177950 5.334345 7.069962 2.239918 3.014027 -9.761485 -3.357912 -5.489492 4.444002 -0.256547 0.471328 -0.821162 -9.445554 -16.222353 -8.354267 -3.647604 -2.614941 12.636232 14.213290 -15.214504 -22.712764 16.405754 33.367011 5.540355 
44.061787 -25.413937 82.404366 1.855792 -2.456838 -96.701361 1.345712 -3.592490 1.177689 0.480652 -1.526502 0.474449 0.480652 -1.526502 0.474448 0.361654 -1.144504 0.357017 3.623972 -15.538928 -6.155795 4.483972 7.360640 -10.147385 8.850443 8.886292 0.928236 40.726533 -10.713872 -14.983205 -38.122615 -65.228225 100.508187 -52.658378 44.180160 44.537669 -9.429428 7.364472 -0.352667 -40.835990 -1.757926 12.742304 -33.048219 -70.194885 -30.629297 28.414798 17.082255 -70.813455 12.177004 5.225068 6.916501 2.326780 2.949160 -9.683601 -3.372660 -5.286808 4.452108 -0.261961 0.465869 -0.833873 -9.391268 -16.274896 -8.319941 -3.640851 -2.693206 12.763843 14.422134 -15.421415 -23.057209 16.583640 33.703825 5.621431 
44.250854 -25.388035 82.406662 1.873572 -2.549375 -96.621318 1.372862 -3.583744 1.181348 0.486090 -1.527684 0.472091 0.486090 -1.527683 0.472090 0.365726 -1.145389 0.355262 3.645588 -15.508488 -6.167823 4.518237 7.417960 -10.162246 8.844105 8.937708 0.933476 40.709119 -10.769431 -14.986104 -38.124750 -65.213950 100.518166 -52.656753 44.187769 44.539623 -9.445236 7.389421 -0.366832 -40.891236 -1.744077 12.784460 -32.978687 -70.162312 -30.648121 28.406458 17.095637 -70.815852 12.182086 5.123934 6.754208 2.410861 2.900885 -9.623821 -3.388432 -5.110665 4.492991 -0.269757 0.475034 -0.850988 -9.329110 -16.318502 -8.259895 -3.638609 -2.778936 12.897288 14.561946 -15.647320 -23.323914 16.797221 34.068663 5.742254 
44.443924 -25.363119 82.409531 1.871838 -2.651613 -96.554150 1.400578 -3.594389 1.196892 0.488041 -1.528101 0.473554 0.488041 -1.528102 0.473553 0.367194 -1.145700 0.356364 3.668723 -15.478366 -6.180434 4.555137 7.474753 -10.177629 8.836125 8.968546 0.925125 40.700155 -10.794138 -14.974321 -38.152545 -65.227733 100.556955 -52.650059 44.183319 44.533465 -9.444260 7.429605 -0.366408 -40.930390 -1.728917 12.821327 -32.954515 -70.156520 -30.635809 28.397985 17.089125 -70.810497 12.195190 4.998698 6.605532 2.492284 2.857850 -9.566068 -3.388438 -4.968860 4.568911 -0.293294 0.511210 -0.896475 -9.259300 -16.375204 -8.169542 -3.640535 -2.863440 13.037474 14.632512 -15.898551 -23.497309 17.029279 34.454203 5.882689 
44.629406 -25.330763 82.412079 1.897245 -2.721180 -96.477330 1.402643 -3.579772 1.211292 0.488884 -1.528001 0.474178 0.488884 -1.528000 0.474179 0.367827 -1.145622 0.356836 3.687004 -15.444443 -6.192803 4.582881 7.538356 -10.194406 8.820777 9.014447 0.919422 40.699257 -10.788291 -14.982974 -38.224259 -65.270927 100.644019 -52.650482 44.171988 44.518890 -9.447026 7.453643 -0.370701 -40.936175 -1.700518 12.842210 -33.006022 -70.151630 -30.567088 28.391432 17.065941 -70.805156 12.171799 4.905323 6.420635 2.582546 2.820816 -9.489965 -3.390217 -4.793491 4.607186 -0.313320 0.511808 -0.927147 -9.217653 -16.395191 -8.103305 -3.638201 -2.949969 13.160298 14.729108 -16.160234 -23.703371 17.268494 34.835174 6.019783 
